<?xml version="1.0" standalone="no"?>
<!DOCTYPE svg PUBLIC "-//W3C//DTD SVG 20010904//EN"
 "http://www.w3.org/TR/2001/REC-SVG-20010904/DTD/svg10.dtd">
<svg version="1.0" xmlns="http://www.w3.org/2000/svg"
 width="3500.000000pt" height="1440.000000pt" viewBox="0 0 3500.000000 1440.000000"
 preserveAspectRatio="xMidYMid meet">

<g transform="translate(0.000000,1440.000000) scale(0.100000,-0.100000)"
fill="#000000" stroke="none">
<path d="M19450 9464 c-66 -56 -97 -164 -61 -221 27 -43 114 -110 161 -124 50
-15 82 -6 130 37 53 48 90 125 90 187 0 42 -4 53 -31 78 -37 34 -142 69 -209
69 -38 0 -55 -6 -80 -26z"/>
<path d="M14253 9465 c-17 -7 -36 -22 -41 -32 -6 -10 -13 -79 -16 -153 -4 -74
-9 -181 -12 -238 l-6 -102 -31 26 c-57 48 -146 84 -209 84 -236 0 -481 -292
-543 -649 -23 -131 -20 -178 17 -251 37 -76 134 -177 199 -208 56 -27 118 -28
167 -3 62 33 175 161 266 304 39 61 43 64 69 44 16 -11 14 -19 -25 -95 l-42
-83 18 -34 c24 -45 59 -76 130 -119 50 -30 69 -36 116 -36 142 0 367 117 385
200 15 67 -34 150 -114 194 l-52 28 -67 -45 c-68 -45 -126 -77 -138 -77 -24 0
65 370 161 673 103 327 107 350 71 412 -43 72 -159 154 -241 168 -16 3 -44 -1
-62 -8z m-124 -687 c20 -7 22 -13 16 -45 -16 -86 -96 -205 -229 -341 -55 -56
-127 -123 -159 -149 l-60 -47 7 63 c12 106 53 251 96 337 81 165 199 231 329
182z"/>
<path d="M22200 9467 c-59 -30 -97 -150 -160 -507 -36 -203 -69 -340 -147
-605 -31 -104 -56 -209 -57 -232 -1 -38 4 -47 48 -92 57 -58 157 -111 210
-111 34 0 39 4 56 43 21 48 50 218 50 296 0 72 9 87 101 180 90 90 172 151
203 151 17 0 18 -6 13 -55 -3 -31 -31 -139 -63 -242 l-57 -186 19 -35 c21 -38
95 -102 155 -133 73 -37 196 -19 344 50 125 58 153 104 123 205 -14 45 -71
107 -118 126 -28 12 -34 10 -92 -28 -58 -37 -138 -76 -138 -67 0 2 23 68 51
147 143 405 148 424 111 476 -38 53 -132 131 -172 143 -35 11 -43 9 -83 -14
-53 -31 -125 -107 -242 -257 -48 -60 -90 -110 -94 -110 -4 0 -12 5 -18 11 -13
13 -8 35 44 194 43 133 55 156 139 285 44 67 68 114 71 141 6 39 4 42 -63 107
-63 61 -137 110 -189 126 -11 3 -31 0 -45 -7z"/>
<path d="M20236 9353 c-24 -47 -65 -294 -66 -397 0 -18 -6 -18 -89 -12 l-90 7
-27 -46 c-23 -39 -26 -54 -22 -105 3 -49 10 -66 33 -90 28 -29 31 -30 93 -24
60 7 64 6 58 -12 -21 -69 -119 -489 -123 -532 l-6 -53 55 -53 c111 -107 230
-138 370 -96 95 28 183 76 230 123 32 31 38 44 38 78 0 75 -57 152 -137 186
-33 13 -36 13 -81 -20 -83 -59 -162 -100 -162 -84 0 22 58 361 73 427 l12 55
150 8 c91 5 154 12 163 20 59 48 53 201 -10 240 -20 14 -34 13 -128 -3 -58
-10 -106 -17 -108 -15 -2 2 4 18 13 36 27 51 55 139 55 171 0 16 -7 42 -15 58
-30 58 -184 160 -242 160 -14 0 -28 -10 -37 -27z"/>
<path d="M16123 9329 c-18 -5 -35 -14 -38 -19 -7 -11 -36 -336 -39 -424 -1
-52 2 -61 24 -77 33 -25 117 -34 149 -17 28 15 77 129 143 331 l41 127 -24 26
c-52 57 -163 80 -256 53z"/>
<path d="M9804 9285 c-22 -54 -59 -219 -94 -420 -17 -99 -53 -295 -80 -435
-68 -358 -64 -326 -40 -365 41 -66 172 -144 242 -145 69 0 143 91 295 364 40
72 73 129 74 126 0 -3 6 -79 14 -169 16 -190 19 -197 111 -248 122 -68 241
-91 303 -58 96 49 201 257 270 533 55 218 74 376 60 481 -23 161 -157 298
-348 355 -80 24 -120 21 -173 -13 -80 -51 -100 -159 -49 -259 l20 -39 74 -6
c42 -3 99 -15 133 -29 l59 -23 -1 -125 c-2 -141 -29 -291 -71 -396 -27 -69
-97 -184 -111 -184 -5 0 -12 27 -16 61 -21 206 -97 393 -176 434 -76 39 -126
-1 -278 -227 -58 -87 -111 -157 -116 -155 -21 8 -7 73 59 277 91 283 134 428
141 482 6 45 5 48 -40 96 -53 57 -168 122 -215 122 -27 0 -34 -5 -47 -35z"/>
<path d="M18256 9285 c-23 -47 -57 -203 -101 -454 -20 -113 -58 -320 -86 -458
-29 -147 -47 -263 -43 -278 16 -66 184 -180 255 -173 55 5 69 53 89 298 7 80
14 151 16 159 3 9 23 -13 51 -55 105 -158 224 -283 344 -363 74 -50 103 -50
178 -4 64 40 101 113 101 199 l0 63 -102 51 c-57 28 -146 80 -198 115 -100 67
-230 170 -230 183 0 4 28 23 62 42 190 108 520 401 534 475 8 45 -1 91 -26
133 -26 42 -108 82 -170 82 l-46 0 -96 -132 c-112 -155 -216 -277 -281 -331
-26 -21 -47 -36 -47 -33 0 3 8 27 19 53 34 88 83 272 76 292 -17 56 -187 171
-252 171 -25 0 -34 -6 -47 -35z"/>
<path d="M11422 9031 c-154 -58 -303 -247 -376 -478 -28 -90 -49 -231 -40
-272 27 -126 147 -260 294 -330 49 -23 67 -26 165 -26 90 0 123 4 180 24 203
69 283 150 255 259 -15 62 -49 105 -104 131 l-44 22 -54 -34 c-91 -59 -197
-108 -276 -128 -41 -10 -79 -19 -84 -19 -5 0 -8 37 -6 81 l3 82 101 23 c235
52 426 171 479 298 50 119 -32 269 -190 347 -56 27 -78 32 -158 36 -74 3 -102
0 -145 -16z m188 -246 c64 -33 45 -105 -44 -177 -49 -38 -174 -108 -196 -108
-12 0 21 86 56 142 28 45 133 158 147 158 4 0 21 -7 37 -15z"/>
<path d="M12245 9034 c-42 -21 -112 -91 -141 -141 -41 -68 -32 -96 51 -166 39
-32 74 -68 79 -81 7 -18 -8 -64 -72 -222 -44 -109 -87 -225 -97 -256 -14 -51
-15 -60 -1 -86 36 -71 191 -167 258 -160 46 4 60 39 98 227 33 169 33 168 144
295 73 83 150 146 178 146 19 0 20 -4 15 -57 -3 -32 -31 -139 -62 -238 -32
-104 -54 -189 -50 -202 8 -33 100 -119 158 -148 69 -34 138 -33 244 4 95 33
169 77 214 129 28 32 31 40 25 81 -8 62 -50 118 -114 154 l-54 30 -26 -21
c-36 -29 -155 -102 -159 -98 -2 2 28 91 66 199 126 353 130 376 78 444 -40 53
-127 119 -167 128 -63 14 -142 -56 -317 -278 -47 -59 -87 -106 -88 -105 -2 2
3 35 10 73 12 63 18 133 16 176 -2 30 -70 107 -132 148 -67 45 -104 51 -154
25z"/>
<path d="M14948 9011 c-70 -51 -130 -135 -131 -187 -1 -32 4 -42 38 -68 22
-17 59 -50 83 -73 51 -49 52 -30 -25 -262 -30 -91 -57 -190 -60 -220 -5 -51
-2 -60 26 -98 39 -53 115 -110 159 -119 70 -14 274 90 438 222 l42 34 16 -25
c9 -13 16 -26 16 -29 0 -2 -46 -37 -102 -77 -315 -223 -530 -406 -590 -498
-52 -83 -29 -161 83 -274 75 -75 164 -124 246 -134 147 -17 336 89 383 215 51
136 206 883 265 1274 15 98 15 101 -6 134 -25 41 -127 126 -185 154 -48 24
-69 19 -89 -21 -18 -33 -48 -204 -66 -367 l-12 -114 -72 -54 c-80 -60 -236
-156 -243 -150 -2 3 5 33 17 68 50 155 91 367 91 475 l0 62 -61 65 c-64 69
-126 106 -176 106 -19 0 -50 -14 -85 -39z m492 -1242 c-44 -133 -114 -286
-152 -332 l-23 -29 -43 17 c-47 19 -92 66 -92 96 0 35 38 96 102 164 66 71
237 219 245 212 2 -3 -15 -60 -37 -128z"/>
<path d="M16923 9031 c-188 -65 -411 -339 -379 -466 17 -66 145 -164 340 -260
l108 -54 -48 -31 c-56 -35 -152 -73 -169 -66 -7 2 -22 33 -35 68 -13 34 -30
69 -38 76 -27 21 -123 15 -173 -11 -80 -43 -112 -142 -68 -213 28 -46 122
-106 208 -134 263 -84 682 111 640 299 -13 59 -79 109 -274 205 -200 99 -206
106 -165 183 23 43 168 189 178 179 8 -9 32 -120 32 -153 0 -42 25 -55 106
-55 76 0 128 23 162 73 65 94 -31 277 -183 350 -72 35 -160 39 -242 10z"/>
<path d="M19348 9021 c-88 -56 -165 -182 -140 -227 6 -11 41 -44 79 -75 53
-43 69 -62 71 -85 2 -19 -16 -77 -48 -154 -88 -212 -130 -329 -130 -358 0 -34
33 -80 86 -123 126 -102 247 -106 440 -13 93 44 139 84 150 130 17 68 -36 158
-117 200 l-52 26 -41 -31 c-42 -32 -139 -92 -142 -88 -1 1 18 61 43 132 55
162 100 334 109 418 8 80 -9 121 -83 195 -87 87 -148 102 -225 53z"/>
<path d="M21267 9031 c-217 -72 -399 -338 -438 -640 -10 -75 -9 -96 5 -142 35
-118 177 -258 315 -310 120 -45 337 -7 471 83 70 46 100 90 100 144 -1 87 -57
156 -161 195 l-51 20 -62 -59 c-74 -71 -132 -106 -211 -126 -94 -25 -89 -31
-83 92 6 124 45 257 104 353 32 53 144 169 163 169 13 0 55 -58 84 -116 27
-54 41 -64 85 -64 55 0 107 23 149 65 40 39 43 47 43 94 0 29 -7 65 -15 80
-24 48 -111 117 -182 146 -92 37 -230 44 -316 16z"/>
<path d="M23562 9031 c-195 -73 -376 -355 -414 -647 -8 -67 -8 -90 6 -135 32
-108 155 -236 286 -298 73 -34 192 -41 294 -16 151 36 282 118 306 191 25 75
-23 175 -104 214 l-45 21 -55 -35 c-93 -60 -194 -106 -274 -127 -41 -10 -79
-19 -84 -19 -14 0 -10 160 5 164 6 2 61 15 120 29 204 48 387 160 441 268 67
134 -5 284 -177 369 -58 28 -80 33 -160 37 -74 3 -102 0 -145 -16z m188 -246
c89 -46 14 -162 -162 -251 -37 -19 -70 -34 -73 -34 -31 0 57 163 127 236 33
35 65 64 70 64 5 0 22 -7 38 -15z"/>
<path d="M24385 9034 c-42 -21 -112 -91 -141 -141 -41 -68 -32 -96 51 -166 39
-32 74 -68 79 -81 7 -19 -8 -66 -77 -237 -106 -263 -113 -289 -93 -328 37 -70
191 -166 258 -159 46 4 60 38 98 228 17 85 37 164 44 175 33 50 172 199 214
230 111 81 110 27 -4 -329 -20 -60 -33 -119 -30 -131 8 -33 102 -121 159 -150
67 -33 135 -33 235 1 132 44 234 116 247 176 15 65 -35 149 -115 192 l-52 28
-27 -21 c-35 -28 -154 -101 -158 -97 -2 2 25 84 61 182 82 232 116 344 116
385 -1 62 -124 187 -200 204 -63 14 -159 -73 -341 -308 -38 -49 -69 -85 -69
-80 0 4 5 26 10 48 19 86 29 199 18 220 -25 47 -73 96 -130 134 -66 45 -104
51 -153 25z"/>
<path d="M3169 6787 c-177 -50 -289 -219 -289 -438 0 -235 148 -427 343 -446
l64 -6 17 -53 c20 -62 67 -129 115 -161 55 -37 201 -31 201 8 0 14 -7 19 -28
19 -51 0 -131 30 -169 63 -37 32 -93 112 -93 132 0 5 22 18 49 28 59 21 146
97 189 165 51 79 74 164 74 267 -1 189 -84 339 -222 403 -65 30 -180 39 -251
19z m220 -62 c117 -64 181 -205 181 -398 0 -46 -7 -102 -16 -132 -48 -151
-197 -272 -311 -250 -94 17 -196 102 -243 202 -106 225 -32 533 143 597 68 25
180 16 246 -19z"/>
<path d="M16020 6785 c-145 -41 -241 -151 -276 -314 -48 -229 43 -459 214
-539 75 -35 197 -37 283 -3 187 72 292 306 246 549 -28 144 -99 246 -206 294
-60 27 -187 33 -261 13z m223 -58 c57 -34 93 -76 129 -152 38 -81 51 -161 46
-275 -6 -116 -31 -188 -90 -255 -129 -147 -352 -122 -453 51 -67 115 -85 340
-36 465 28 74 92 146 156 176 70 34 181 29 248 -10z"/>
<path d="M20227 6790 c-133 -34 -240 -152 -282 -311 -18 -68 -19 -228 -1 -294
28 -108 101 -206 182 -248 88 -45 217 -42 319 8 56 27 135 98 135 120 0 21 -4
19 -56 -21 -90 -68 -120 -79 -219 -79 -105 0 -148 18 -209 85 -64 71 -96 174
-96 312 0 272 166 444 371 385 83 -24 102 -51 114 -155 8 -66 14 -88 26 -90
13 -2 18 16 27 109 9 80 9 116 1 125 -35 42 -228 75 -312 54z"/>
<path d="M28866 6785 c-96 -37 -146 -105 -146 -200 0 -98 43 -154 200 -260
120 -82 132 -92 163 -137 52 -78 28 -180 -53 -220 -75 -38 -222 -8 -262 53 -8
14 -19 57 -23 96 -5 51 -11 73 -22 78 -9 3 -17 4 -18 3 -1 -2 -7 -46 -13 -98
-10 -94 -10 -95 15 -122 71 -75 239 -97 346 -44 139 67 177 220 81 326 -19 21
-89 75 -155 121 -66 45 -133 98 -150 118 -106 129 -11 295 144 251 81 -23 102
-52 112 -163 6 -65 10 -78 23 -75 14 3 19 23 27 106 10 98 10 103 -10 122 -52
49 -187 73 -259 45z"/>
<path d="M6324 6383 l-152 -408 -51 -14 c-29 -8 -51 -20 -51 -27 0 -11 29 -14
140 -14 113 0 140 3 140 14 0 18 -22 26 -70 26 -21 0 -42 4 -45 10 -3 5 16 70
42 145 l48 135 150 0 151 0 43 -127 c23 -71 45 -133 47 -140 3 -6 -8 -14 -25
-17 -17 -3 -44 -9 -61 -12 -17 -3 -30 -12 -30 -20 0 -21 275 -21 284 1 5 15
-9 21 -63 27 -22 3 -35 34 -166 413 -117 339 -145 410 -161 413 -17 2 -38 -48
-170 -405z m223 89 c34 -97 60 -178 59 -180 -2 -1 -62 -1 -134 0 l-130 3 66
182 c36 100 68 180 71 177 3 -3 34 -85 68 -182z"/>
<path d="M21757 6758 c-7 -18 -76 -203 -153 -410 -136 -371 -139 -378 -169
-383 -53 -11 -63 -15 -69 -30 -5 -13 16 -15 135 -15 128 0 140 2 137 18 -2 13
-15 18 -53 20 -28 2 -53 6 -57 10 -4 4 15 68 41 142 l49 135 150 3 149 3 47
-132 c25 -72 46 -135 46 -139 0 -5 -17 -12 -37 -15 -61 -11 -73 -16 -73 -31 0
-11 25 -14 141 -14 128 0 140 2 137 18 -2 12 -14 18 -40 20 -20 2 -41 8 -46
15 -5 7 -71 193 -148 415 -147 427 -156 445 -187 370z m82 -278 c33 -96 61
-178 61 -182 0 -5 -58 -8 -130 -8 -71 0 -130 4 -130 9 0 5 24 76 54 157 71
195 76 207 80 203 2 -2 31 -83 65 -179z"/>
<path d="M27485 6773 c-8 -23 -274 -740 -287 -775 -7 -19 -19 -29 -41 -33 -57
-11 -67 -16 -67 -31 0 -21 265 -21 273 0 7 18 -13 26 -69 26 -28 0 -44 4 -44
13 0 6 21 72 46 145 l47 133 150 -3 150 -3 48 -136 48 -137 -60 -11 c-39 -8
-59 -17 -59 -27 0 -11 24 -14 141 -14 128 0 140 2 137 18 -2 11 -14 18 -38 20
-19 2 -38 7 -42 11 -4 4 -64 171 -133 371 -162 474 -153 450 -175 450 -10 0
-21 -8 -25 -17z m79 -299 l63 -179 -130 -3 c-71 -1 -131 -1 -133 1 -2 2 26 84
61 182 36 98 65 181 65 184 0 17 18 -27 74 -185z"/>
<path d="M4420 6766 c0 -9 21 -16 63 -22 l62 -9 6 -310 c4 -229 9 -320 19
-350 20 -56 104 -137 158 -153 115 -34 240 -22 320 32 54 36 96 110 112 195 6
29 10 174 10 321 l0 268 60 7 c41 5 60 11 60 21 0 11 -27 14 -145 14 -120 0
-145 -2 -145 -15 0 -10 17 -16 61 -21 l60 -7 -3 -311 c-3 -299 -4 -313 -25
-353 -47 -88 -138 -131 -255 -120 -88 8 -145 46 -183 122 l-30 60 -3 301 -3
301 57 9 c32 5 59 15 62 22 3 9 -33 12 -157 12 -129 0 -161 -3 -161 -14z"/>
<path d="M7670 6766 c0 -10 16 -17 48 -21 26 -4 53 -8 60 -10 10 -4 12 -85 10
-382 l-3 -378 -57 -14 c-36 -8 -58 -19 -58 -27 0 -12 52 -14 308 -14 l309 0
11 112 c6 62 9 115 7 117 -16 15 -35 -20 -55 -98 l-22 -91 -184 0 -184 0 0
389 0 388 60 7 c43 5 60 11 60 21 0 13 -26 15 -155 15 -128 0 -155 -2 -155
-14z"/>
<path d="M9090 6766 c0 -10 17 -17 55 -21 l55 -7 0 -384 0 -383 -37 -7 c-21
-4 -46 -11 -55 -16 -43 -22 -11 -28 142 -28 135 0 160 2 160 15 0 16 -23 23
-85 27 l-40 3 -3 387 -2 386 60 7 c41 5 60 11 60 21 0 11 -29 14 -155 14 -128
0 -155 -3 -155 -14z"/>
<path d="M10194 6673 c4 -60 11 -112 16 -117 17 -17 28 5 34 76 11 117 0 108
137 108 l119 0 0 -384 0 -384 -30 -6 c-16 -3 -43 -9 -60 -12 -17 -3 -30 -12
-30 -20 0 -12 25 -14 157 -12 114 2 157 6 161 15 4 15 -6 19 -70 28 l-48 6 0
385 0 384 124 0 c142 0 136 4 136 -95 0 -71 6 -95 25 -95 14 0 20 34 31 153
l7 77 -358 0 -358 0 7 -107z"/>
<path d="M11680 6766 c0 -9 18 -17 48 -22 l47 -9 122 -235 123 -235 0 -147 0
-146 -30 -6 c-16 -3 -43 -9 -60 -12 -17 -3 -30 -12 -30 -20 0 -11 28 -14 160
-14 135 0 160 2 160 15 0 15 -22 23 -80 27 l-35 3 -2 155 -3 155 118 230 119
229 43 11 c24 6 45 16 48 23 3 9 -30 12 -132 12 -110 0 -136 -3 -136 -14 0
-10 19 -16 60 -21 33 -4 60 -10 59 -13 0 -4 -46 -99 -103 -211 l-102 -204 -26
44 c-27 47 -188 366 -188 373 0 3 25 8 55 11 37 5 55 12 55 21 0 11 -28 14
-145 14 -117 0 -145 -3 -145 -14z"/>
<path d="M14210 6766 c0 -9 15 -17 38 -21 20 -3 42 -9 48 -13 6 -4 65 -114
132 -244 l122 -237 0 -139 0 -140 -37 -6 c-82 -14 -93 -18 -93 -32 0 -11 29
-14 161 -14 147 0 160 1 157 18 -2 12 -14 18 -38 20 -86 6 -80 -5 -80 157 l0
145 120 239 119 240 46 6 c28 5 45 12 45 21 0 11 -27 14 -135 14 -109 0 -135
-3 -135 -14 0 -10 19 -16 60 -21 33 -4 60 -11 60 -16 0 -10 -93 -198 -163
-327 l-45 -84 -106 207 c-58 114 -106 208 -106 210 0 1 25 6 55 10 38 4 55 11
55 21 0 11 -25 14 -140 14 -114 0 -140 -3 -140 -14z"/>
<path d="M17280 6765 c0 -10 17 -16 59 -21 l59 -6 4 -307 c5 -340 8 -363 73
-438 53 -62 120 -87 235 -87 78 0 105 4 148 24 114 50 162 153 162 349 0 64 3
193 7 288 l6 171 54 7 c36 4 53 11 53 21 0 11 -26 14 -145 14 -116 0 -145 -3
-145 -14 0 -9 21 -16 63 -22 l62 -9 0 -301 0 -300 -30 -59 c-23 -44 -42 -67
-77 -88 -86 -53 -228 -47 -302 15 -82 67 -96 138 -96 479 l0 257 60 7 c41 5
60 11 60 21 0 11 -29 14 -155 14 -129 0 -155 -2 -155 -15z"/>
<path d="M22960 6766 c0 -9 19 -17 58 -22 l57 -9 3 -382 2 -382 -54 -11 c-30
-6 -57 -18 -60 -26 -5 -12 18 -14 144 -14 122 0 150 3 150 14 0 17 -22 26 -65
26 -69 0 -65 -26 -65 371 0 197 3 359 8 359 4 0 123 -176 264 -391 197 -297
262 -390 275 -387 17 3 18 32 21 414 l2 411 57 9 c31 5 58 15 61 22 3 9 -31
12 -147 12 -121 0 -151 -3 -151 -14 0 -9 21 -16 63 -22 l62 -9 3 -344 c1 -190
-1 -342 -4 -338 -3 3 -110 167 -238 364 l-232 358 -107 3 c-87 2 -107 0 -107
-12z"/>
<path d="M25598 6673 c4 -98 11 -122 33 -123 4 0 9 28 13 63 4 34 9 77 13 95
l5 32 124 0 124 0 0 -384 0 -385 -47 -7 c-27 -3 -56 -11 -65 -16 -43 -22 -11
-28 142 -28 137 0 160 2 160 15 0 18 -8 21 -72 30 l-48 6 0 385 0 384 130 0
130 0 0 -49 c0 -78 11 -141 26 -141 16 0 21 18 29 115 3 44 9 88 11 98 5 16
-16 17 -354 17 l-359 0 5 -107z"/>
<path d="M29970 6671 c0 -92 3 -110 16 -115 9 -4 18 -5 20 -3 2 1 8 44 15 95
l12 92 123 0 124 0 0 -384 0 -383 -59 -12 c-34 -7 -61 -18 -65 -26 -5 -13 18
-15 154 -15 137 0 160 2 160 15 0 18 -8 21 -72 30 l-48 6 0 385 0 384 129 0
129 0 7 -96 c6 -81 9 -95 23 -92 13 2 19 19 24 68 4 36 9 86 13 113 l6 47
-356 0 -355 0 0 -109z"/>
<path d="M31460 6766 c0 -9 16 -17 43 -21 85 -13 77 29 77 -395 l0 -378 -30
-6 c-16 -3 -43 -9 -60 -12 -17 -3 -30 -12 -30 -20 0 -12 50 -14 319 -14 l319
0 6 53 c3 28 8 78 12 110 5 47 4 57 -9 57 -15 0 -27 -33 -54 -140 l-9 -35
-197 -3 -197 -2 0 190 0 190 115 0 115 0 0 -32 c0 -18 3 -50 6 -70 5 -31 9
-36 23 -29 12 7 18 37 27 133 6 68 7 127 4 131 -12 14 -39 -21 -46 -58 l-6
-35 -119 0 -119 0 0 180 0 180 184 0 185 0 5 -42 c4 -24 7 -63 9 -88 1 -32 7
-46 18 -48 14 -2 18 11 24 85 3 48 9 98 12 111 l5 22 -316 0 c-265 0 -316 -2
-316 -14z"/>
</g>
</svg>
