<?xml version="1.0" standalone="no"?>
<!DOCTYPE svg PUBLIC "-//W3C//DTD SVG 20010904//EN"
 "http://www.w3.org/TR/2001/REC-SVG-20010904/DTD/svg10.dtd">
<svg version="1.0" xmlns="http://www.w3.org/2000/svg"
 width="512.000000pt" height="512.000000pt" viewBox="0 0 512.000000 512.000000"
 preserveAspectRatio="xMidYMid meet">

<g transform="translate(0.000000,512.000000) scale(0.100000,-0.100000)"
fill="#000000" stroke="none">
<path d="M2315 5109 c-497 -50 -977 -247 -1360 -556 -130 -105 -340 -321 -436
-448 -268 -357 -435 -767 -501 -1230 -17 -118 -17 -512 0 -630 43 -303 119
-553 246 -810 143 -289 285 -484 517 -710 215 -209 400 -339 674 -471 636
-308 1386 -336 2040 -77 319 126 594 305 844 548 232 226 374 421 517 710 126
255 203 510 246 810 17 118 17 512 0 630 -43 303 -119 553 -246 810 -136 274
-268 460 -479 673 -399 404 -883 649 -1457 737 -125 19 -477 28 -605 14z m460
-79 c605 -56 1149 -315 1565 -746 377 -390 598 -847 681 -1409 18 -119 18
-511 0 -630 -49 -331 -144 -623 -288 -880 -566 -1016 -1741 -1505 -2852 -1189
-816 232 -1464 874 -1700 1686 -61 209 -88 381 -97 613 -34 866 394 1686 1131
2168 449 294 1025 436 1560 387z"/>
<path d="M1632 3838 c-7 -7 -12 -19 -12 -27 0 -9 108 -124 240 -257 249 -249
256 -259 208 -285 -18 -10 -48 17 -262 230 -133 133 -249 241 -257 241 -21 0
-39 -20 -39 -44 0 -13 85 -105 235 -256 129 -129 235 -242 235 -251 0 -19 -20
-39 -40 -39 -8 0 -119 104 -245 231 -127 126 -238 235 -248 240 -14 8 -23 6
-38 -7 -10 -9 -19 -22 -19 -28 0 -6 108 -119 240 -251 132 -132 240 -247 240
-255 0 -20 -20 -40 -39 -40 -9 0 -122 106 -251 235 -156 156 -243 235 -257
235 -27 0 -46 -24 -39 -47 3 -11 133 -145 289 -300 213 -212 290 -282 313
-287 23 -5 54 1 114 25 l82 31 48 -48 c26 -27 352 -373 725 -769 372 -396 703
-746 735 -777 80 -79 93 -78 187 15 81 82 91 111 50 158 -12 15 -383 367 -825
784 -442 416 -801 762 -798 769 50 119 57 143 52 175 -5 30 -50 80 -293 323
-158 158 -295 288 -303 288 -9 0 -21 -5 -28 -12z"/>
<path d="M3508 3710 c-139 -25 -276 -86 -398 -177 -41 -31 -203 -184 -360
-339 l-285 -284 129 -123 c71 -67 138 -128 149 -136 18 -13 55 22 548 515 479
479 527 529 506 537 -32 12 -234 17 -289 7z"/>
<path d="M1850 2130 c-261 -237 -490 -446 -507 -465 -50 -53 -45 -75 39 -162
85 -88 106 -99 151 -79 18 8 236 219 499 483 l467 468 -87 93 -87 93 -475
-431z"/>
</g>
</svg>
